 <svg  version="1.0" xmlns="http://www.w3.org/2000/svg"  width="900.000000pt" height="840.000000pt" viewBox="0 0 900.000000 840.000000"  preserveAspectRatio="xMidYMid meet">  <g transform="translate(0.000000,840.000000) scale(0.100000,-0.100000)" fill="#000000" stroke="none"> <path d="M5917 7753 c-12 -7 -32 -12 -45 -13 -12 0 -57 -10 -100 -21 -134 -37 -146 -40 -190 -49 -23 -5 -51 -14 -61 -20 -11 -5 -35 -10 -53 -10 -18 0 -42 -8 -54 -18 -20 -17 -20 -23 -15 -394 6 -345 8 -379 24 -395 15 -15 19 -16 26 -4 21 33 31 181 29 423 -3 321 -15 297 168 350 204 60 257 78 291 104 17 13 34 24 38 24 3 0 13 -17 22 -37 14 -33 16 -87 15 -372 -1 -183 -6 -369 -12 -413 -13 -92 -9 -111 22 -106 20 3 24 12 35 83 18 121 24 148 39 170 8 11 14 31 14 45 0 14 4 30 10 36 9 9 25 70 37 142 3 18 9 35 14 38 5 3 9 18 9 33 0 54 26 71 120 80 165 16 164 23 -39 161 -61 42 -113 82 -170 132 -51 44 -59 48 -103 46 -26 -1 -58 -8 -71 -15z m240 -250 c7 -18 -31 -58 -46 -49 -11 7 -15 58 -5 68 9 10 45 -4 51 -19z"/> <path d="M6675 7510 c-3 -6 -3 -30 1 -55 4 -31 2 -50 -7 -61 -7 -8 -16 -34 -20 -57 -11 -60 -28 -125 -38 -145 -5 -9 -19 -60 -31 -112 -12 -52 -28 -110 -36 -128 -8 -18 -14 -43 -14 -55 0 -13 -7 -32 -15 -43 -8 -10 -15 -32 -15 -49 0 -16 -7 -39 -15 -49 -20 -27 -20 -130 0 -150 8 -8 15 -27 15 -43 1 -15 7 -39 15 -53 8 -14 14 -36 15 -48 0 -13 6 -36 14 -50 8 -15 25 -72 37 -127 12 -55 28 -114 35 -132 8 -17 14 -40 14 -51 0 -12 5 -24 10 -27 6 -3 10 -21 10 -38 0 -18 7 -45 15 -61 8 -15 15 -38 15 -50 0 -12 7 -31 15 -42 8 -10 15 -31 15 -45 0 -14 7 -34 15 -45 8 -10 15 -30 15 -44 0 -30 25 -104 47 -141 15 -25 15 -29 0 -52 -13 -20 -27 -26 -69 -30 -55 -5 -130 -23 -160 -38 -10 -5 -34 -13 -55 -18 -123 -30 -202 -54 -236 -71 -20 -11 -44 -20 -53 -20 -8 0 -12 -4 -9 -10 10 -16 79 -12 156 9 38 11 76 18 83 15 7 -3 19 2 26 11 7 8 23 15 36 15 13 0 49 7 81 15 159 41 189 59 222 129 19 39 19 44 4 106 -8 36 -19 81 -23 100 -16 67 -63 235 -81 293 -11 31 -19 66 -19 76 0 11 -6 32 -14 48 -13 26 -26 70 -46 163 -5 19 -15 60 -25 90 -43 145 -61 270 -43 303 6 12 13 36 14 52 2 17 14 64 28 105 14 41 26 82 26 91 0 28 69 231 84 248 8 9 17 28 21 43 10 40 26 50 55 33 14 -8 39 -21 57 -30 17 -8 34 -19 38 -25 3 -6 33 -28 66 -50 32 -22 68 -51 80 -63 52 -55 51 -43 50 -402 -1 -184 -5 -345 -10 -358 -5 -12 -17 -56 -26 -97 -19 -83 -12 -162 20 -270 15 -48 17 -109 17 -468 l0 -414 -23 -25 c-59 -64 -154 -71 -253 -18 -108 57 -132 49 -221 -71 -31 -41 -66 -78 -78 -83 -58 -22 -95 -34 -127 -41 -19 -5 -66 -18 -105 -30 -38 -12 -98 -24 -132 -27 -60 -5 -65 -4 -140 40 -89 52 -120 62 -166 53 -38 -7 -119 -73 -197 -161 -30 -33 -61 -63 -71 -67 -9 -4 -20 -11 -23 -16 -9 -16 -164 -88 -246 -115 -66 -22 -137 -36 -260 -51 -42 -5 -159 18 -200 39 -16 8 -59 38 -97 67 -37 28 -86 61 -108 74 -75 43 -139 74 -151 74 -7 0 -40 -27 -74 -60 -43 -42 -75 -87 -106 -147 -51 -100 -123 -194 -171 -224 -18 -11 -33 -25 -33 -30 0 -5 -15 -17 -34 -26 -156 -82 -197 -101 -241 -112 -27 -7 -68 -20 -90 -28 -22 -8 -67 -17 -100 -19 -33 -3 -82 -7 -109 -10 -48 -6 -153 10 -191 29 -11 5 -63 38 -116 73 -117 77 -186 114 -211 114 -52 0 -121 -65 -137 -128 -5 -20 -12 -74 -15 -120 -4 -51 -13 -93 -23 -108 -20 -32 -75 -59 -133 -68 -25 -3 -58 -13 -75 -20 -46 -21 -113 -37 -182 -42 -65 -6 -77 -2 -161 54 -72 46 -140 14 -201 -93 -16 -28 -37 -57 -46 -65 -23 -19 -79 -40 -137 -50 -27 -5 -52 -11 -58 -15 -20 -12 -162 -46 -218 -51 -41 -3 -64 -1 -82 10 -14 8 -35 20 -47 25 -13 6 -23 15 -23 20 0 6 -21 22 -47 37 -55 32 -192 133 -241 178 -58 54 -37 81 88 110 41 10 89 22 105 28 17 5 44 13 60 17 52 13 71 29 108 83 41 63 50 115 52 303 1 214 4 252 16 235 5 -8 9 -53 7 -100 -1 -47 1 -91 5 -97 4 -7 7 -45 6 -85 -2 -40 1 -91 5 -113 8 -45 40 -94 53 -82 4 5 8 233 8 506 0 529 -1 542 -48 557 -28 9 -125 -5 -129 -19 -2 -7 -1 -255 2 -552 3 -297 3 -548 1 -557 -2 -13 -13 -18 -38 -18 -50 0 -206 -38 -321 -78 -23 -8 -80 -15 -125 -16 l-82 -1 4 25 c2 14 5 527 5 1142 l1 1116 29 27 c31 29 132 63 301 104 167 40 180 43 215 57 19 7 71 20 115 29 44 10 94 21 110 26 17 5 42 9 55 10 14 0 77 3 141 5 96 4 118 3 129 -10 7 -9 25 -16 40 -16 112 0 170 -84 198 -285 8 -57 -2 -283 -15 -365 -17 -98 -42 -154 -91 -206 -46 -48 -71 -63 -159 -100 -63 -25 -56 -44 16 -44 37 0 75 -7 104 -20 51 -22 115 -90 123 -130 3 -14 9 -41 14 -60 5 -19 11 -251 12 -515 l3 -480 -50 -6 c-27 -4 -88 -17 -135 -29 -47 -13 -98 -25 -115 -27 -16 -3 -44 -11 -62 -19 -17 -8 -40 -14 -50 -14 -11 0 -33 -6 -49 -14 -16 -7 -48 -22 -71 -32 -23 -11 -41 -23 -39 -29 3 -12 87 -7 100 6 6 5 26 9 45 9 20 1 47 7 61 15 14 8 36 14 49 15 13 0 44 7 70 15 25 8 73 21 106 30 95 25 142 51 169 92 22 33 26 56 34 164 13 178 21 184 95 84 46 -62 110 -115 140 -115 7 0 17 -4 22 -9 18 -17 132 -41 196 -41 77 0 186 15 254 34 28 8 77 21 110 29 65 16 121 34 145 48 8 5 33 18 55 28 89 41 175 105 278 208 39 38 137 179 137 195 0 18 59 127 79 147 17 17 21 18 21 5 0 -8 11 -30 25 -48 14 -18 25 -37 25 -42 1 -26 150 -154 179 -154 10 0 22 -5 28 -11 18 -18 84 -30 203 -34 94 -4 126 -1 175 14 100 32 171 51 189 51 9 0 19 7 22 15 4 8 16 15 29 15 28 0 126 51 232 121 46 32 183 176 203 216 28 54 91 133 107 133 3 0 3 -12 0 -26 -4 -25 6 -69 24 -106 5 -10 9 -26 9 -36 0 -10 6 -26 13 -37 12 -15 15 -6 20 75 4 51 7 412 7 801 l0 708 -22 12 c-12 6 -61 45 -109 85 -48 41 -90 74 -94 74 -4 0 -35 14 -69 30 -122 60 -263 76 -401 45 -38 -9 -91 -19 -116 -24 -26 -4 -62 -17 -80 -28 -19 -11 -48 -22 -66 -26 -29 -6 -91 -41 -123 -70 -8 -8 -25 -19 -36 -25 -76 -40 -218 -194 -263 -285 -37 -77 -51 -167 -26 -167 23 0 75 54 75 78 0 11 7 25 15 32 8 7 15 18 15 25 0 24 101 145 168 202 96 81 180 128 298 168 135 45 348 65 401 36 12 -6 32 -11 44 -11 12 0 31 -7 41 -16 11 -11 37 -17 68 -18 27 -1 50 -4 50 -8 0 -5 6 -8 13 -8 26 0 80 -93 92 -160 3 -19 10 -46 15 -60 11 -33 19 -255 10 -271 -5 -6 -23 -12 -42 -11 -18 0 -43 -6 -55 -14 -12 -7 -35 -14 -50 -14 -16 0 -38 -7 -49 -14 -12 -8 -30 -14 -41 -13 -19 1 -48 -6 -139 -34 -17 -5 -41 -9 -54 -9 -13 0 -31 -6 -39 -14 -25 -21 -75 -27 -98 -11 -18 12 -19 20 -12 57 13 68 10 248 -4 291 -19 52 -49 73 -86 57 -16 -6 -38 -24 -50 -40 -21 -29 -21 -31 -21 -636 0 -594 0 -607 20 -640 28 -44 52 -50 93 -25 64 40 80 107 76 336 -2 94 0 175 3 181 4 6 33 16 65 23 32 7 78 19 103 26 25 7 70 20 100 29 30 8 91 27 135 41 106 35 143 41 150 23 6 -15 -10 -321 -20 -398 -4 -25 -13 -59 -21 -77 -8 -17 -14 -35 -14 -40 0 -12 -51 -111 -86 -166 -31 -49 -147 -172 -199 -213 -46 -34 -226 -124 -251 -124 -12 0 -27 -6 -33 -14 -7 -8 -28 -16 -49 -19 -20 -3 -59 -10 -87 -16 -27 -6 -70 -15 -95 -21 -57 -12 -177 -13 -184 -1 -3 4 -25 11 -48 15 -41 7 -119 57 -169 109 -27 28 -69 115 -69 145 0 12 -4 22 -10 22 -5 0 -10 17 -10 38 0 21 -7 61 -15 90 -13 43 -15 122 -12 519 2 257 7 482 11 499 7 29 4 34 -40 70 -26 22 -71 60 -100 86 -31 28 -100 70 -167 103 l-113 55 -141 0 c-135 0 -239 -15 -285 -40 -10 -6 -27 -10 -38 -10 -25 0 -106 -35 -115 -50 -3 -5 -16 -10 -27 -10 -12 0 -29 -6 -37 -14 -9 -8 -39 -26 -67 -40 -54 -27 -159 -125 -167 -156 -2 -10 -1 -24 4 -31 6 -11 13 -10 36 1 32 17 180 116 204 136 8 8 21 14 27 14 6 0 37 15 69 34 32 19 78 37 103 41 25 4 65 14 90 23 71 27 297 24 370 -5 30 -11 76 -27 102 -34 62 -17 117 -56 138 -99 42 -81 44 -108 47 -613 3 -415 1 -495 -12 -539 -8 -28 -15 -66 -15 -84 0 -17 -7 -45 -15 -60 -8 -16 -15 -36 -16 -44 0 -8 -9 -28 -20 -45 -10 -16 -21 -37 -25 -45 -41 -108 -222 -285 -354 -347 -126 -58 -160 -72 -190 -78 -19 -4 -39 -11 -45 -15 -5 -4 -26 -10 -45 -13 -19 -3 -80 -13 -135 -22 -122 -20 -242 -14 -311 17 -26 11 -65 39 -88 63 -49 50 -106 155 -106 194 0 16 -7 48 -15 71 -22 62 -22 1032 0 1070 8 14 15 48 15 75 0 28 7 59 15 69 8 11 15 27 15 37 0 26 58 129 87 153 33 29 26 52 -22 72 -19 8 -35 18 -35 23 0 5 -16 19 -35 31 -19 12 -54 37 -78 55 -23 19 -64 51 -90 72 -27 21 -62 50 -78 66 -17 15 -35 27 -41 27 -6 0 -41 15 -77 33 -94 46 -177 45 -431 -3 -30 -6 -64 -14 -75 -19 -11 -5 -42 -13 -70 -19 -27 -6 -66 -15 -85 -21 -19 -6 -78 -22 -130 -35 -52 -14 -105 -30 -118 -36 -12 -5 -52 -14 -90 -20 -37 -6 -87 -18 -112 -25 -25 -8 -56 -17 -70 -20 -14 -3 -31 -9 -38 -13 -10 -7 -13 -240 -12 -1211 0 -744 4 -1210 10 -1221 5 -10 35 -35 67 -56 52 -34 202 -141 229 -163 6 -5 44 -32 85 -61 127 -91 203 -148 232 -174 32 -30 100 -36 133 -11 10 8 32 15 47 15 16 0 38 5 50 12 12 6 40 15 62 19 47 9 122 28 150 39 11 4 67 19 125 32 l105 24 -3 106 c-2 71 0 108 8 113 6 4 27 -10 49 -32 57 -58 140 -128 157 -131 8 -2 22 2 30 9 8 6 31 15 52 20 20 4 87 22 147 38 61 17 139 37 175 46 36 9 81 20 100 25 19 5 44 11 55 12 19 3 20 10 17 138 -1 74 -5 168 -8 208 -5 69 -5 72 16 72 12 0 40 -18 63 -40 55 -52 211 -168 265 -197 32 -17 65 -24 135 -28 125 -8 344 18 369 43 7 7 25 12 41 12 16 0 43 7 60 16 73 38 86 44 99 44 17 0 157 90 214 138 25 20 70 69 100 109 76 99 113 177 131 278 9 50 22 59 48 33 12 -13 43 -39 69 -58 26 -19 64 -49 84 -65 35 -29 104 -78 142 -100 10 -6 24 -16 31 -22 8 -6 32 -13 54 -16 22 -3 63 -10 90 -15 37 -8 70 -6 125 4 41 8 89 14 105 14 17 0 39 7 49 15 11 8 31 15 45 15 30 0 91 21 179 61 35 16 65 29 68 29 3 0 39 25 79 56 89 66 152 135 194 210 27 47 35 54 54 48 12 -4 36 -22 52 -40 17 -19 35 -34 40 -34 6 0 33 -20 60 -45 28 -25 55 -45 60 -45 6 0 37 9 70 20 33 10 80 24 105 30 25 6 59 16 75 22 17 6 46 13 65 15 19 3 41 10 48 16 7 6 32 14 55 18 23 5 66 13 96 18 86 16 93 28 85 138 -7 91 -6 93 15 93 12 0 24 -6 27 -14 3 -7 42 -44 87 -81 l81 -68 29 16 c16 10 41 17 56 17 15 0 32 5 39 12 10 10 43 18 140 35 18 3 35 9 38 15 3 5 5 232 4 506 -1 419 -3 499 -15 512 -8 9 -15 30 -15 46 0 16 -7 38 -15 48 -21 27 -20 139 0 156 8 7 15 28 15 48 0 19 7 43 15 52 12 13 14 77 15 395 0 209 1 387 0 397 0 9 -26 33 -57 54 -32 21 -92 63 -133 94 -41 30 -85 62 -96 70 -63 44 -164 125 -164 132 0 12 -58 10 -65 -2z m-1382 -1229 c27 -28 28 -30 25 -131 l-3 -103 -35 -3 c-66 -6 -205 -38 -248 -56 -24 -10 -57 -18 -72 -18 -16 0 -32 -4 -35 -10 -3 -5 -15 -10 -26 -10 -85 0 -235 -98 -223 -146 4 -16 0 -23 -15 -27 -30 -7 -30 -76 -1 -84 27 -7 26 -47 -2 -65 l-23 -15 -3 121 c-10 337 -10 461 -1 477 10 19 18 19 93 -7 43 -15 58 -16 130 -4 44 6 94 18 109 26 15 7 78 23 139 34 61 12 118 28 125 36 21 20 34 17 66 -15z m-2955 -613 c5 -7 9 -47 9 -88 -2 -71 -3 -75 -26 -78 -26 -4 -80 50 -81 81 0 25 18 59 44 79 25 21 40 22 54 6z m2327 -139 c0 -7 -8 -15 -17 -17 -18 -3 -25 18 -11 32 10 10 28 1 28 -15z"/> <path d="M6580 7494 c-14 -7 -35 -14 -47 -14 -31 0 -84 -33 -80 -50 9 -47 197 21 197 72 0 12 -42 8 -70 -8z"/> <path d="M3079 6228 l-29 -32 0 -638 c0 -620 1 -638 19 -648 34 -18 62 -11 97 24 l34 34 0 634 c0 480 -3 637 -12 646 -24 24 -77 14 -109 -20z"/> <path d="M6000 6185 c-10 -12 -11 -37 -2 -118 7 -56 14 -226 17 -377 4 -151 8 -287 11 -301 4 -22 -1 -30 -29 -48 -19 -11 -50 -21 -70 -21 -20 0 -38 -4 -41 -9 -3 -5 -23 -12 -43 -15 -21 -4 -49 -11 -63 -16 -26 -9 -84 -25 -200 -55 -74 -20 -170 -57 -170 -66 0 -15 68 -18 110 -5 25 8 79 22 120 32 41 9 113 28 160 42 47 13 99 27 117 31 60 12 122 66 151 131 14 33 30 60 36 60 6 0 20 -12 32 -27 12 -16 25 -26 27 -23 16 16 5 175 -15 214 -10 18 -20 72 -36 182 -4 29 -13 58 -19 65 -11 14 -13 28 -35 209 -16 129 -27 152 -58 115z"/> <path d="M1530 6170 c-13 -8 -15 -40 -12 -207 2 -109 -1 -223 -7 -253 -13 -77 1 -91 62 -61 24 12 61 36 82 55 l39 33 4 176 c3 97 2 187 -2 202 -12 46 -40 65 -98 65 -29 0 -60 -5 -68 -10z"/> <path d="M4437 3733 c-2 -5 -2 -43 1 -85 l4 -76 87 -7 c47 -3 97 -11 111 -17 14 -5 52 -14 84 -18 33 -5 63 -15 68 -22 5 -7 6 -34 2 -60 -7 -55 1 -75 22 -58 10 9 26 8 64 -5 78 -26 79 -24 79 112 -1 128 -10 153 -55 153 -13 0 -43 5 -66 10 -154 37 -355 80 -374 80 -12 0 -25 -3 -27 -7z"/> <path d="M3250 3678 c-59 -20 -299 -82 -365 -93 -69 -12 -78 -21 -70 -70 3 -24 3 -60 -1 -80 l-6 -35 -63 0 c-42 0 -66 -5 -74 -14 -9 -11 -12 -194 -10 -736 l1 -721 -21 -20 c-17 -16 -21 -31 -21 -85 0 -65 0 -65 -35 -80 -19 -7 -52 -14 -74 -14 -30 0 -43 -5 -51 -19 -6 -11 -10 -89 -10 -181 0 -129 3 -162 14 -166 8 -3 48 4 88 15 41 12 87 21 102 21 15 0 37 5 49 12 12 7 47 15 77 19 57 7 90 17 176 56 66 29 177 142 185 188 6 31 55 33 64 3 12 -39 54 -87 95 -108 68 -35 269 -20 318 23 10 8 27 18 38 21 12 4 45 32 74 62 29 31 56 52 61 47 4 -4 9 -26 11 -48 3 -34 6 -39 23 -35 11 2 112 5 225 6 156 1 210 -2 224 -12 14 -9 24 -10 38 -3 14 8 32 6 65 -5 26 -9 63 -16 82 -16 20 0 58 -7 85 -15 27 -8 63 -15 79 -15 30 0 62 -8 140 -37 54 -19 61 -11 53 63 -6 54 -4 64 11 72 22 12 63 -2 63 -22 0 -29 175 -196 205 -196 4 0 39 -15 78 -34 90 -42 135 -56 175 -56 17 0 41 -4 55 -9 57 -22 249 20 293 63 6 7 25 23 40 37 16 13 37 36 46 51 10 14 32 34 50 43 32 15 34 15 51 -6 9 -11 17 -27 17 -35 0 -7 27 -40 60 -73 50 -50 72 -64 126 -81 36 -11 81 -20 99 -20 19 0 44 -4 57 -9 30 -11 207 5 273 25 129 39 268 146 331 254 15 25 40 55 55 68 39 31 106 132 149 221 38 82 48 142 52 301 3 173 1 178 -64 146 -17 -9 -42 -16 -55 -16 -17 0 -27 -8 -34 -28 -8 -24 -20 -32 -69 -46 -33 -9 -92 -21 -132 -27 -40 -6 -82 -13 -93 -15 -18 -3 -20 -11 -20 -69 0 -75 8 -79 84 -45 24 11 50 20 59 20 9 0 46 10 83 22 96 31 100 27 93 -79 -8 -125 -31 -239 -57 -291 -12 -25 -43 -67 -69 -94 -27 -26 -48 -51 -48 -55 0 -12 -154 -153 -167 -153 -7 0 -13 -4 -13 -10 0 -5 -12 -13 -27 -16 -16 -4 -32 -10 -38 -14 -24 -17 -180 -32 -267 -26 -87 7 -182 26 -212 43 -8 4 -44 35 -81 68 -84 75 -108 120 -99 180 8 59 -1 95 -25 95 -24 0 -33 -35 -25 -102 6 -51 5 -54 -32 -94 -50 -52 -163 -130 -200 -137 -16 -3 -49 -11 -74 -17 -62 -16 -290 0 -290 20 0 5 -20 19 -45 31 -25 13 -53 31 -62 41 -9 10 -21 18 -26 18 -18 0 -77 50 -77 66 0 7 -9 14 -20 14 -10 0 -24 9 -30 20 -6 11 -17 20 -25 20 -36 0 -76 37 -98 90 -22 54 -22 62 -25 585 -3 516 -2 532 18 577 18 41 46 73 93 103 20 13 31 216 13 240 -7 10 -32 19 -61 22 -28 2 -58 12 -67 20 -19 17 -16 20 -33 -33 -4 -12 -12 -14 -28 -10 -49 15 -195 48 -244 57 -92 16 -167 27 -185 28 -9 1 -23 13 -30 29 l-13 27 -150 8 c-82 4 -155 5 -162 3 -15 -6 -18 -122 -4 -145 8 -12 37 -14 155 -12 172 3 166 8 155 -117 -4 -42 -8 -385 -8 -762 -1 -386 -5 -688 -10 -693 -5 -5 -19 -2 -34 8 -21 14 -53 17 -184 16 -87 0 -167 -1 -178 -3 -13 -2 -20 3 -23 17 -12 75 -20 80 -62 40 -14 -13 -61 -43 -105 -65 -44 -23 -85 -47 -91 -55 -14 -18 -136 -33 -211 -26 -51 6 -65 11 -83 34 -12 15 -27 27 -34 27 -6 0 -21 15 -31 33 -19 31 -20 56 -23 727 -2 674 -2 695 17 707 24 15 183 53 222 53 16 0 46 7 66 15 21 8 64 16 97 17 l59 3 -2 -650 -2 -651 21 -27 c15 -19 30 -27 53 -27 80 1 77 -27 81 742 2 376 7 707 11 736 l8 52 -33 0 c-29 0 -85 -8 -275 -38 -33 -6 -86 -18 -119 -27 -32 -9 -62 -13 -67 -8 -5 5 -4 82 1 173 12 206 13 204 -90 168z m-67 -191 c2 -7 0 -82 -6 -167 -5 -85 -12 -465 -16 -845 -5 -495 -10 -700 -19 -724 -12 -36 -57 -82 -124 -128 -21 -14 -38 -29 -38 -34 0 -14 -111 -66 -178 -83 -35 -9 -83 -16 -106 -16 -23 0 -51 -7 -62 -15 -25 -19 -48 -19 -64 0 -7 9 -19 14 -26 11 -18 -7 -24 19 -20 87 4 57 5 59 70 120 79 74 93 98 102 180 3 34 12 67 19 72 6 6 15 26 19 45 4 19 8 319 10 665 2 473 6 637 15 660 17 42 49 73 85 85 17 5 94 31 171 58 139 48 160 51 168 29z m1257 -257 c31 -4 73 -13 95 -18 22 -6 85 -18 140 -28 55 -9 106 -18 113 -20 16 -4 15 -27 -5 -219 -13 -127 -16 -247 -15 -575 1 -228 5 -473 8 -544 5 -110 4 -134 -11 -167 -21 -45 -17 -43 -76 -25 -91 28 -155 39 -257 42 -58 2 -106 5 -108 7 -1 1 -5 341 -8 756 -4 414 -9 757 -12 762 -3 5 0 18 6 30 10 17 17 20 43 14 18 -3 57 -10 87 -15z"/> <path d="M4283 3604 c-8 -20 5 -126 17 -138 12 -12 33 6 68 58 33 48 31 61 -8 81 -37 19 -69 19 -77 -1z"/> <path d="M6600 3209 c-19 -4 -79 -17 -134 -28 -168 -35 -321 -124 -401 -232 -68 -93 -60 -101 38 -39 110 69 277 110 448 110 63 0 119 -4 125 -8 5 -5 32 -17 59 -27 65 -24 78 -33 118 -86 69 -90 89 -165 91 -354 2 -100 4 -119 16 -116 8 2 40 8 70 13 30 5 60 14 66 21 9 9 9 72 4 232 -10 265 -22 318 -91 406 -68 87 -269 140 -409 108z m283 -174 c17 -16 27 -32 24 -43 -4 -14 -6 -13 -12 6 -4 12 -15 22 -24 22 -18 0 -41 18 -41 32 0 15 25 7 53 -17z"/> <path d="M5155 3176 c-95 -36 -109 -45 -133 -83 -32 -48 -18 -60 45 -39 168 55 466 -29 638 -180 63 -56 73 -69 104 -147 32 -81 33 -88 21 -131 -7 -24 -10 -50 -8 -58 3 -7 -1 -27 -9 -45 -7 -18 -13 -46 -13 -63 0 -17 -6 -31 -12 -31 -46 -6 -156 6 -173 17 -34 24 -135 15 -135 -12 0 -17 37 -37 56 -30 8 3 32 -1 52 -10 25 -10 62 -14 115 -13 96 4 105 -3 107 -91 1 -36 2 -71 1 -79 -1 -11 -16 -12 -83 -6 -148 14 -133 23 -136 -76 l-3 -87 60 0 c54 0 98 -6 144 -19 16 -4 17 -12 12 -71 -7 -71 6 -129 26 -116 8 4 10 57 8 168 -2 88 0 202 5 253 8 82 11 92 32 102 21 9 24 17 24 63 0 59 -13 92 -24 63 -3 -9 -6 -32 -6 -52 0 -23 -4 -33 -12 -31 -8 3 -14 28 -16 66 -3 53 0 62 18 72 23 12 26 49 9 97 -19 56 40 193 97 224 25 13 30 32 14 52 -5 7 -29 37 -52 67 -56 71 -189 161 -288 194 -186 61 -376 74 -485 32z"/> <path d="M5288 2760 l-23 -18 0 -494 0 -493 27 -42 c48 -73 103 -82 134 -21 14 26 15 51 10 142 -3 61 -6 129 -5 151 1 22 1 49 0 60 -2 22 -7 294 -10 515 -2 134 -3 147 -24 173 -32 39 -80 51 -109 27z"/> <path d="M6348 2723 c-24 -6 -29 -30 -37 -172 -8 -135 -3 -161 32 -161 30 0 104 23 118 37 15 15 -2 266 -20 287 -13 15 -55 19 -93 9z"/> <path d="M6511 2211 c-7 -5 -10 -14 -7 -20 9 -14 56 -14 76 -1 13 9 13 11 0 20 -19 12 -50 13 -69 1z"/> <path d="M6417 2169 c-9 -5 -36 -13 -60 -17 l-42 -8 0 -248 c0 -234 1 -248 19 -262 50 -36 117 -3 141 70 15 44 15 71 5 246 -6 108 -10 203 -8 211 4 17 -31 22 -55 8z"/> <path d="M6555 2070 c-3 -5 3 -10 15 -10 12 0 18 5 15 10 -3 6 -10 10 -15 10 -5 0 -12 -4 -15 -10z"/> <path d="M5876 1993 c-8 -8 -8 -101 1 -131 10 -39 23 -4 23 65 0 58 -8 81 -24 66z"/> </g> </svg> 